<?xml version="1.0" standalone="no"?>
<svg xmlns:xlink="http://www.w3.org/1999/xlink" xmlns="http://www.w3.org/2000/svg" width="256mm" height="121mm" viewBox="0 0 256 121"><g id="svgGroup" stroke="#000" stroke-width="0.25mm" stroke-linecap="round" fill="none" fill-rule="evenodd" font-size="9pt"><path d="M 1 1 m -1 0 a 1 1 0 0 1 2 0 a 1 1 0 0 1 -2 0 z M 8.1785165 13.1785165 m -4.1785165 0 a 4.1785165 4.1785165 0 0 1 8.357033 0 a 4.1785165 4.1785165 0 0 1 -8.357033 0 z M 118.8214835 13.1785165 m -4.1785165 0 a 4.1785165 4.1785165 0 0 1 8.357033 0 a 4.1785165 4.1785165 0 0 1 -8.357033 0 z M 134 53 L 134 40.3392582 L 131 40.3392582 L 131 27.3392582 L 134 27.3392582 L 134 14.6785165 L 188 14.6785165 L 188 27.3392582 L 191 27.3392582 L 191 40.3392582 L 188 40.3392582 L 188 53 L 134 53 Z M 152 45.8214835 L 170 45.8214835 L 170 43.2214835 L 152 43.2214835 L 152 45.8214835 Z M 199 53 L 199 40.3392582 L 196 40.3392582 L 196 27.3392582 L 199 27.3392582 L 199 14.6785165 L 217 14.6785165 L 217 11.6785165 L 235 11.6785165 L 235 14.6785165 L 253 14.6785165 L 253 27.3392582 L 256 27.3392582 L 256 40.3392582 L 253 40.3392582 L 253 53 L 199 53 Z M 217 45.8214835 L 235 45.8214835 L 235 43.2214835 L 217 43.2214835 L 217 45.8214835 Z M 15.357033 118 L 15.357033 100 L 9.6785165 100 L 9.6785165 82 L 15.357033 82 L 15.357033 64 L 26.0892582 64 L 26.0892582 61 L 37.0892582 61 L 37.0892582 64 L 47.8214835 64 L 47.8214835 82 L 50.8214835 82 L 50.8214835 100 L 47.8214835 100 L 47.8214835 118 L 37.0892582 118 L 37.0892582 121 L 26.0892582 121 L 26.0892582 118 L 15.357033 118 Z M 69 118 L 69 64 L 69.2785165 64 L 69.2785165 61 L 77.0785165 61 L 77.0785165 64 L 123 64 L 123 118 L 77.0785165 118 L 77.0785165 121 L 69.2785165 121 L 69.2785165 118 L 69 118 Z M 112.8214835 100 L 115.6214835 100 L 115.6214835 82 L 112.8214835 82 L 112.8214835 100 Z M 4 56 L 4 47.3214835 L 1 47.3214835 L 1 6 L 61 6 L 61 47.3214835 L 58 47.3214835 L 58 56 L 4 56 Z M 12.357033 40.3392582 L 14.957033 40.3392582 L 14.957033 27.3392582 L 12.357033 27.3392582 L 12.357033 40.3392582 Z M 47.8214835 40.3392582 L 50.4214835 40.3392582 L 50.4214835 27.3392582 L 47.8214835 27.3392582 L 47.8214835 40.3392582 Z M 26.0892582 45.8214835 L 37.0892582 45.8214835 L 37.0892582 43.2214835 L 26.0892582 43.2214835 L 26.0892582 45.8214835 Z M 123 56 L 123 47.3214835 L 126 47.3214835 L 126 6 L 66 6 L 66 47.3214835 L 69 47.3214835 L 69 56 L 123 56 Z M 114.642967 40.3392582 L 112.042967 40.3392582 L 112.042967 27.3392582 L 114.642967 27.3392582 L 114.642967 40.3392582 Z M 79.1785165 40.3392582 L 76.5785165 40.3392582 L 76.5785165 27.3392582 L 79.1785165 27.3392582 L 79.1785165 40.3392582 Z M 100.9107418 45.8214835 L 89.9107418 45.8214835 L 89.9107418 43.2214835 L 100.9107418 43.2214835 L 100.9107418 45.8214835 Z" vector-effect="non-scaling-stroke"/></g></svg>